PathFileType	4	(x/y/z)	S02_PSF_T01
DataRate	CameraRate	NumFrames	NumMarkers	Units	OrigDataRate	OrigDataStartFrame	OrigNumFrames
240	240	6	51	mm	240	299	398
Frame#	Time	Sternum			R.Acromium			L.Acromium			Top.Head			R.ASIS			L.ASIS			R.PSIS			L.PSIS			R.Great.Tro			L.Great.Tro			R.Iliac.Crest			L.Iliac.Crest			V.Sacral			R.Thigh.Upper.Post			R.Thigh.Lower.Ant			R.Thigh.Lower.Post			R.Thigh.Upper.Ant			R.Knee.Lat			R.Knee.Med			R.Shank.Upper.Post			R.Shank.Lower.Ant			R.Shank.Lower.Post			R.Shank.Upper.Ant			R.Ankle.Lat			R.Ankle.Med			R.Heel.Upper			R.Heel.Med			R.Heel.Lat			R.Toe.Lat			R.Toe.Med			R.Toe.Tip			L.Thigh.Upper.Post			L.Thigh.Lower.Ant			L.Thigh.Lower.Post			L.Thigh.Upper.Ant			L.Knee.Lat			L.Knee.Med			L.Shank.Upper.Post			L.Shank.Lower.Ant			L.Shank.Lower.Post			L.Shank.Upper.Ant			L.Ankle.Lat			L.Ankle.Med			L.Heel.Upper			L.Heel.Med			L.Heel.Lat			L.Toe.Lat			L.Toe.Med			L.Toe.Tip			Cervical.Spine			Back			
		X1	Y1	Z1	X2	Y2	Z2	X3	Y3	Z3	X4	Y4	Z4	X5	Y5	Z5	X6	Y6	Z6	X7	Y7	Z7	X8	Y8	Z8	X9	Y9	Z9	X10	Y10	Z10	X11	Y11	Z11	X12	Y12	Z12	X13	Y13	Z13	X14	Y14	Z14	X15	Y15	Z15	X16	Y16	Z16	X17	Y17	Z17	X18	Y18	Z18	X19	Y19	Z19	X20	Y20	Z20	X21	Y21	Z21	X22	Y22	Z22	X23	Y23	Z23	X24	Y24	Z24	X25	Y25	Z25	X26	Y26	Z26	X27	Y27	Z27	X28	Y28	Z28	X29	Y29	Z29	X30	Y30	Z30	X31	Y31	Z31	X32	Y32	Z32	X33	Y33	Z33	X34	Y34	Z34	X35	Y35	Z35	X36	Y36	Z36	X37	Y37	Z37	X38	Y38	Z38	X39	Y39	Z39	X40	Y40	Z40	X41	Y41	Z41	X42	Y42	Z42	X43	Y43	Z43	X44	Y44	Z44	X45	Y45	Z45	X46	Y46	Z46	X47	Y47	Z47	X48	Y48	Z48	X49	Y49	Z49	X50	Y50	Z50	X51	Y51	Z51	

299	1.2417	177.87	1086.4	310.13	71.217	1332.4	439.3	75.165	1318.8	146.15	80.16	1612.1	254.67	133.35	919.97	417.36	160.76	920.29	209.6	-70.407	947.75	344.9	-69.625	956.26	271	63.037	778.26	503.35	67.658	813.58	111.11	25.131	955.18	470.08	41.415	966.72	133.76	-92.802	904.12	296.89	93.698	597.12	506.76	165.98	525.21	496.43	94.948	506.87	495.76	160.46	614.84	502.66	116.73	433.96	494.28	144.98	411.15	351.21	-69.392	356.36	448	-87.052	247.92	434.78	-122.27	306.31	433.54	-36.415	292.22	456.95	-180	232.9	415.37	-147.58	233.14	337.44	-206.34	280.84	355.43	-222.12	259.39	319.98	-241.92	264.48	381.94	-194.39	112.35	426.9	-158.62	88.464	325.2	-127.36	53.41	387.45	89.042	590.3	144.57	181.63	534.65	165.85	108.26	505.86	173.79	153.84	621.29	137.06	182.18	452.05	181.96	162.28	457.25	317.66	98.086	279.64	184.65	165.21	193.34	209.25	94.362	207.67	203.33	162.36	267.66	190.23	113.02	98.089	222.48	124.35	95.039	304.77	54.198	65.454	256.63	61.635	39.613	290.72	60.151	37.54	228.73	227.08	35.988	201.72	246.69	45.364	311.83	307.05	62.302	266.41	-6.5329	1388.3	290.97	-84.16	1138.3	307.75
300	1.2458	182.91	1087.3	310.34	76.129	1333.5	439.31	80.724	1319.9	146.11	85.726	1613.3	254.68	138.59	921.28	417.19	165.77	920.99	209.39	-65.168	949.12	344.67	-64.531	957.54	270.75	68.454	779.72	503.16	71.84	814.22	111.07	30.305	956.55	469.84	46.505	967.58	133.54	-87.745	905.47	296.78	102.17	599.04	507.09	175.32	527.97	496.78	104.49	508.81	496.19	168.74	617.57	502.95	127.21	436.13	494.65	155.59	413.72	351.55	-58.121	356.59	448	-74.525	247.94	435.02	-110.41	305.92	433.58	-24.446	292.84	457.12	-167.34	232.07	415.43	-134.85	232.35	337.64	-194.76	278.89	354.93	-210.05	256.71	319.71	-229.98	262.03	381.58	-179.12	111.58	428.14	-142.89	87.341	326.71	-110.85	53.74	389.34	91.52	590.95	144.75	183.65	534.47	165.79	110.07	506.33	173.91	156.56	621.36	137.07	183.5	451.92	181.86	164.01	457.2	317.7	98.624	279.85	184.74	165.52	193.31	209.14	94.717	207.88	203.42	162.88	267.64	190.17	113.14	98.142	222.55	124.42	95.139	304.78	54.199	65.538	256.63	61.648	39.691	290.71	60.162	37.619	228.74	227.09	35.992	201.72	246.72	45.33	311.84	307.09	62.224	266.42	-1.238	1389.4	290.74	-78.944	1139.5	307.08
301	1.25	187.93	1088.3	310.56	81.041	1334.6	439.33	86.263	1321	146.09	91.279	1614.4	254.72	143.83	922.63	417	170.77	921.7	209.19	-59.921	950.51	344.44	-59.424	958.83	270.49	73.886	781.21	502.97	75.981	814.84	111.03	35.489	957.97	469.59	51.595	968.45	133.31	-82.686	906.85	296.68	110.6	600.99	507.41	184.59	530.76	497.05	113.98	510.78	496.6	176.98	620.32	503.2	137.61	438.32	494.96	166.16	416.34	351.83	-46.874	356.67	447.99	-61.909	247.8	435.26	-98.515	305.33	433.63	-12.439	293.36	457.28	-154.57	230.98	415.53	-122.03	231.33	337.85	-183.12	276.63	354.5	-197.9	253.74	319.51	-217.93	259.25	381.3	-163.64	110.58	429.38	-126.96	86.076	328.21	-94.103	53.957	391.19	93.953	591.62	144.96	185.62	534.3	165.73	111.84	506.82	174.06	159.24	621.42	137.09	184.76	451.81	181.76	165.77	457.18	317.74	99.164	280.06	184.81	165.82	193.29	209.05	95.077	208.1	203.5	163.4	267.62	190.11	113.27	98.196	222.61	124.49	95.243	304.78	54.2	65.627	256.62	61.657	39.775	290.7	60.176	37.704	228.74	227.11	35.993	201.73	246.75	45.296	311.85	307.13	62.145	266.42	4.0472	1390.6	290.53	-73.739	1140.6	306.41
302	1.2542	192.94	1089.3	310.77	85.953	1335.8	439.34	91.783	1322.1	146.08	96.82	1615.5	254.79	149.06	924.01	416.78	175.76	922.43	208.98	-54.668	951.92	344.22	-54.307	960.13	270.24	79.342	782.72	502.77	80.085	815.47	111.02	40.681	959.42	469.33	56.682	969.31	133.09	-77.623	908.23	296.59	118.98	602.96	507.7	193.79	533.59	497.26	123.41	512.79	496.98	185.17	623.08	503.41	147.93	440.53	495.2	176.7	419.02	352.07	-35.651	356.59	447.97	-49.21	247.52	435.5	-86.585	304.54	433.69	-0.39801	293.76	457.44	-141.7	229.63	415.69	-109.14	230.11	338.07	-171.39	274.09	354.14	-185.64	250.49	319.39	-205.77	256.14	381.12	-147.95	109.37	430.62	-110.82	84.682	329.69	-77.139	54.065	392.98	96.344	592.29	145.19	187.55	534.13	165.67	113.56	507.32	174.23	161.88	621.49	137.11	185.99	451.71	181.66	167.55	457.17	317.78	99.708	280.27	184.85	166.13	193.29	208.97	95.442	208.31	203.55	163.92	267.62	190.05	113.4	98.252	222.67	124.56	95.349	304.78	54.203	65.722	256.61	61.664	39.863	290.69	60.192	37.793	228.74	227.12	35.993	201.73	246.78	45.261	311.86	307.17	62.063	266.43	9.3237	1391.7	290.33	-68.542	1141.8	305.75
303	1.2583	197.94	1090.2	310.97	90.868	1336.9	439.36	97.285	1323.2	146.09	102.35	1616.7	254.88	154.3	925.42	416.53	180.75	923.16	208.77	-49.414	953.34	344	-49.18	961.42	270	84.827	784.25	502.57	84.153	816.08	111.01	45.884	960.9	469.05	61.764	970.17	132.87	-72.557	909.62	296.51	127.31	604.95	507.99	202.92	536.44	497.4	132.77	514.84	497.33	193.32	625.86	503.58	158.16	442.75	495.38	187.19	421.74	352.27	-24.456	356.36	447.96	-36.431	247.09	435.74	-74.622	303.56	433.76	11.671	294.06	457.59	-128.73	228.02	415.89	-96.165	228.68	338.32	-159.58	271.26	353.86	-173.27	246.97	319.34	-193.5	252.72	381.02	-132.05	107.95	431.85	-94.486	83.171	331.16	-59.975	54.074	394.73	98.695	592.97	145.44	189.43	533.96	165.62	115.24	507.84	174.41	164.46	621.55	137.13	187.18	451.63	181.55	169.34	457.17	317.81	100.26	280.49	184.86	166.44	193.3	208.89	95.81	208.53	203.59	164.45	267.63	190	113.53	98.31	222.73	124.64	95.458	304.78	54.207	65.822	256.6	61.667	39.955	290.68	60.21	37.886	228.74	227.14	35.99	201.73	246.81	45.224	311.86	307.22	61.978	266.43	14.593	1392.8	290.15	-63.352	1143	305.09
304	1.2625	202.93	1091.2	311.17	95.784	1338	439.38	102.77	1324.2	146.11	107.87	1617.8	255.01	159.53	926.86	416.26	185.72	923.9	208.55	-44.159	954.75	343.79	-44.046	962.7	269.77	90.348	785.8	502.38	88.19	816.68	111.02	51.098	962.39	468.76	66.843	971.02	132.66	-67.488	910.99	296.45	135.6	606.96	508.25	211.96	539.3	497.48	142.06	516.9	497.64	201.4	628.63	503.72	168.31	444.98	495.51	197.62	424.5	352.42	-13.288	355.98	447.95	-23.578	246.52	435.98	-62.625	302.4	433.83	23.764	294.25	457.75	-115.65	226.17	416.13	-83.105	227.05	338.59	-147.68	268.15	353.65	-160.78	243.19	319.37	-181.09	248.99	381	-115.97	106.35	433.09	-77.961	81.557	332.61	-42.626	53.994	396.43	101.01	593.66	145.71	191.27	533.79	165.57	116.88	508.38	174.63	167.01	621.62	137.15	188.34	451.56	181.44	171.12	457.18	317.83	100.81	280.71	184.86	166.75	193.32	208.82	96.182	208.75	203.6	164.97	267.65	189.94	113.67	98.371	222.8	124.71	95.57	304.78	54.212	65.927	256.59	61.666	40.052	290.67	60.231	37.984	228.74	227.16	35.985	201.73	246.85	45.187	311.86	307.26	61.891	266.43	19.856	1393.9	289.99	-58.168	1144.1	304.45
